<svg xmlns="http://www.w3.org/2000/svg" width="1191" height="446" viewBox="0 0 1191 446" fill="none"><path fill="#D9D9D9" d="M244.675 438V332.835H11.59L.52 308.85l246-304.425h28.905V305.16h70.11v27.675h-70.11V438h-30.75ZM39.265 305.16h205.41V50.55L39.265 305.16Zm557.843 140.22c-110.085 0-177.735-102.705-177.735-221.4v-1.23C419.373 104.055 488.868.12 598.338.12c110.085 0 177.735 102.705 177.735 221.4v1.23c0 118.695-69.495 222.63-178.965 222.63Zm1.23-28.905c88.56 0 144.525-92.25 144.525-192.495v-1.23c0-100.245-56.58-193.725-145.755-193.725-88.56 0-144.525 92.25-144.525 192.495v1.23c0 99.63 56.58 193.725 145.755 193.725ZM1089.7 438V332.835H856.614l-11.07-23.985L1091.54 4.425h28.91V305.16h70.11v27.675h-70.11V438h-30.75ZM884.289 305.16H1089.7V50.55L884.289 305.16Z" opacity=".301"/></svg>