<svg xmlns="http://www.w3.org/2000/svg" width="32" height="32" viewBox="0 0 32 32" fill="none"><g clip-path="url(#cart_a)"><path fill="currentColor" fill-rule="evenodd" d="M10.136 1.676a2.865 2.865 0 0 1 2.59-1.639h6.548c1.144 0 2.13.67 2.59 1.639 1.12.008 1.992.06 2.77.364.93.363 1.74.981 2.335 1.783.6.809.883 1.846 1.27 3.273l.061.223.968 3.547c.634.325 1.19.763 1.652 1.356 1.019 1.304 1.2 2.857 1.018 4.64-.176 1.728-.72 3.906-1.402 6.632l-.043.172c-.43 1.724-.78 3.123-1.197 4.215-.433 1.14-.984 2.072-1.892 2.781-.908.71-1.947 1.017-3.157 1.162-1.16.139-2.603.139-4.38.139h-7.734c-1.777 0-3.22 0-4.38-.139-1.21-.145-2.249-.453-3.157-1.162-.908-.709-1.459-1.642-1.892-2.78-.416-1.093-.766-2.492-1.197-4.216l-.043-.173C.782 20.768.238 18.59.062 16.861c-.181-1.782 0-3.335 1.018-4.64a4.877 4.877 0 0 1 1.652-1.355L3.7 7.32l.061-.223c.388-1.427.67-2.464 1.27-3.273A5.321 5.321 0 0 1 7.367 2.04c.778-.305 1.65-.356 2.77-.364Zm.002 2.458c-1.084.01-1.518.052-1.878.193-.501.196-.937.528-1.257.96-.289.388-.458.93-.934 2.678l-.58 2.123c1.7-.228 3.893-.228 6.619-.227h7.784c2.726 0 4.92 0 6.618.227l-.579-2.123c-.476-1.747-.645-2.29-.934-2.678a2.865 2.865 0 0 0-1.257-.96c-.36-.14-.794-.182-1.878-.193a2.865 2.865 0 0 1-2.587 1.634h-6.55a2.865 2.865 0 0 1-2.587-1.634Zm2.588-1.64a.41.41 0 0 0 0 .818h6.548a.41.41 0 0 0 0-.819h-6.548ZM5.686 12.54c-1.492.216-2.214.608-2.67 1.193-.457.585-.663 1.38-.51 2.88.155 1.532.653 3.537 1.365 6.383.454 1.816.77 3.072 1.127 4.011.346.908.685 1.388 1.11 1.72.424.331.972.543 1.937.659.997.119 2.293.12 4.164.12h7.582c1.871 0 3.167-.001 4.164-.12.965-.116 1.513-.328 1.938-.66.424-.33.763-.81 1.109-1.719.357-.939.673-2.195 1.127-4.01.712-2.848 1.21-4.852 1.366-6.384.152-1.5-.054-2.295-.51-2.88-.457-.585-1.179-.977-2.67-1.193-1.524-.22-3.59-.224-6.524-.224h-7.582c-2.934 0-5 .003-6.524.224Z" clip-rule="evenodd"/></g><defs><clipPath id="cart_a"><path fill="#fff" d="M0 .037h32v31.925H0z"/></clipPath></defs></svg>