<svg width="35" height="36" viewBox="0 0 35 36" fill="none" xmlns="http://www.w3.org/2000/svg">
	<g clip-path="url(#a)">
		<path fill-rule="evenodd" clip-rule="evenodd"
			d="M26.174 0H10.232c-.316 0-.62.121-.847.338L.37 8.946c-.237.225-.37.537-.37.862V31.8C0 34.5 1.522 36 4.261 36h21.913c2.74 0 4.262-1.5 4.262-4.2V4.2c0-2.7-1.522-4.2-4.262-4.2M8.98 3.971v4.58H4.16l4.816-4.58zM28.305 31.8c0 .97-.267 1.418-.48 1.627s-.666.473-1.65.473H4.26c-.984 0-1.439-.263-1.65-.473-.212-.209-.48-.657-.48-1.627V10.639q.071.009.145.01H9.74a1.36 1.36 0 0 0 1.37-1.35V2.206c0-.036-.006-.071-.008-.106h15.072c.985 0 1.44.263 1.651.473s.48.657.48 1.627z"
			fill="#898989" />
		<path
			d="M9.13 30c-1.977 0-3.042-1.05-3.042-3v-8.4c0-1.95 1.065-3 3.043-3h22.827c1.977 0 3.043 1.05 3.043 3V27c0 1.95-1.066 3-3.043 3z"
			fill="#898989" />
		<path
			d="M15.167 19.839q-.53-.285-1.288-.285h-2.62v6.545h1.405v-2.122h1.18q.765 0 1.303-.278.542-.279.828-.777a2.27 2.27 0 0 0 .285-1.15q0-.653-.283-1.151a1.94 1.94 0 0 0-.81-.784zm-.486 2.506a.9.9 0 0 1-.395.386q-.263.138-.668.138h-.953v-2.183h.946q.408 0 .675.138.266.135.395.38.133.244.133.569 0 .323-.133.572m7.502-2.396q-.723-.393-1.725-.393h-2.374V26.1h2.354q1.013 0 1.737-.393a2.67 2.67 0 0 0 1.12-1.129q.39-.734.391-1.757 0-1.022-.392-1.751a2.67 2.67 0 0 0-1.112-1.122zm-.113 4.067a1.4 1.4 0 0 1-.642.68q-.426.218-1.047.218h-.892V20.74h.896q.622 0 1.047.218.424.216.639.677.217.46.217 1.186c0 .483-.072.886-.217 1.195zm7.967-3.32v-1.14H25.64V26.1h1.404v-2.704h2.7v-1.14h-2.7v-1.561z"
			fill="#fff" />
	</g>
	<defs>
		<clipPath id="a">
			<path fill="#fff" d="M0 0h35v36H0z" />
		</clipPath>
	</defs>
</svg>
