<svg xmlns="http://www.w3.org/2000/svg" fill="none" viewBox="0 0 246 46"><path fill="#fff" d="m133.969 33.265-6.482-17.712h-5.935l9.907 24.286h4.975l9.862-24.286h-5.798l-6.529 17.712Zm-26.884-18.216c-7.396 0-12.874 5.707-12.874 12.647 0 6.893 5.433 12.509 12.784 12.509 7.441 0 12.919-5.707 12.919-12.601 0-6.939-5.433-12.555-12.829-12.555Zm0 20.361c-4.291 0-7.35-3.515-7.35-7.806 0-4.245 2.831-7.715 7.26-7.715 4.336 0 7.395 3.515 7.395 7.807 0 4.245-2.83 7.714-7.305 7.714Zm-23.98-5.614L65.986 7.7h-5.204v31.956h5.525V16.922l17.621 22.734h4.702V7.7h-5.523v22.096ZM190.93 15.049c-3.743 0-5.98 1.964-7.532 4.246v-3.742h-5.524v24.103h5.524V26.052c0-3.743 2.237-5.98 5.432-5.98 3.287 0 5.159 2.146 5.159 5.888v13.696h5.523V24.318c0-5.616-3.149-9.269-8.582-9.269Zm44.025.138c-3.927 0-6.528.822-9.176 2.008l1.507 4.429c2.191-.913 4.2-1.507 6.893-1.507 3.834 0 5.934 1.826 5.934 5.16v.592c-1.871-.593-3.742-1.004-6.664-1.004-5.616 0-9.771 2.556-9.771 7.76v.092c0 4.84 4.018 7.442 8.584 7.442 3.652 0 6.162-1.506 7.806-3.47v2.967h5.478V25.367c0-6.437-3.47-10.18-10.591-10.18Zm5.25 15.75c0 3.013-2.739 5.068-6.391 5.068-2.603 0-4.657-1.28-4.657-3.562v-.09c0-2.466 2.054-3.881 5.524-3.881 2.146 0 4.109.41 5.524.958v1.506ZM212.843 8.932h-5.524v6.62h-3.059V20.3h3.059V32.99c0 5.296 2.876 7.076 6.939 7.076 2.054 0 3.606-.456 4.976-1.232v-4.52c-1.096.548-2.192.822-3.424.822-1.872 0-2.967-.868-2.967-3.013V20.3h6.482v-4.747h-6.482v-6.62Zm-52.638 6.254c-3.926 0-6.528.822-9.176 2.008l1.506 4.429c2.192-.913 4.201-1.507 6.894-1.507 3.835 0 5.935 1.826 5.935 5.16v.592c-1.872-.593-3.743-1.004-6.665-1.004-5.615 0-9.77 2.556-9.77 7.76v.092c0 4.84 4.017 7.442 8.583 7.442 3.652 0 6.163-1.506 7.807-3.47v2.967h5.478V25.367c0-6.437-3.47-10.18-10.592-10.18Zm5.25 15.75c0 3.013-2.739 5.068-6.39 5.068-2.604 0-4.657-1.28-4.657-3.562v-.09c0-2.466 2.053-3.881 5.523-3.881 2.146 0 4.109.41 5.524.958v1.506ZM22.323.533C13.48.533 5.094 5.83 1.604 14.525c-2.896 7.214-1.735 15.064 2.39 21.021l3.88-9.54a1.843 1.843 0 1 1 3.413 1.388L6.675 38.737c.8.787 1.664 1.516 2.588 2.182l9.638-23.702a1.844 1.844 0 0 1 2.4-1.013 1.843 1.843 0 0 1 1.014 2.401l-9.853 24.229c.499.245 1.005.478 1.528.688.5.2 1.004.375 1.51.537L29.683 9.174a1.844 1.844 0 0 1 3.414 1.389L19.136 44.898a22.23 22.23 0 0 0 3.5.224l15.46-38.02a22.155 22.155 0 0 0-7.495-4.964A22.178 22.178 0 0 0 22.323.533ZM40.758 10.342 26.805 44.656c7.067-1.47 13.298-6.332 16.183-13.52 2.859-7.122 1.767-14.865-2.23-20.794Z"/></svg>