<svg xmlns="http://www.w3.org/2000/svg" fill="none" viewBox="0 0 134 25"><path fill="#A7A7A7" d="M13.212 0c.545.093 1.094.166 1.635.284 1.994.434 3.77 1.312 5.3 2.662.714.628.707.645.373 1.466-1.439 3.538-2.884 7.074-4.322 10.612-1.097 2.693-2.189 5.388-3.285 8.083-.088.216-.186.43-.276.645-.279.672-.281.684-1.006.61-.283-.028-.563-.06-.848-.074-.286-.013-.416-.102-.275-.442 1.037-2.504 2.057-5.016 3.08-7.526.86-2.111 1.716-4.225 2.574-6.336.612-1.507 1.225-3.013 1.835-4.521.195-.481-.023-.976-.526-1.215-.422-.2-.959-.037-1.158.422-.497 1.14-.963 2.295-1.433 3.447a10946.078 10946.078 0 0 0-6.204 15.235c-.183.452-.183.46-.637.295-.323-.119-.635-.27-.961-.385-.264-.092-.339-.206-.221-.491.79-1.914 1.56-3.835 2.34-5.753.964-2.375 1.933-4.747 2.897-7.122.18-.443.1-.807-.226-1.11-.286-.265-.698-.31-1.066-.125-.201.1-.322.267-.404.465-.54 1.296-1.08 2.593-1.611 3.894-1.194 2.92-2.385 5.84-3.567 8.764-.107.264-.22.297-.424.13l-1.024-.851c-.225-.188-.12-.405-.038-.61.382-.948.77-1.895 1.156-2.841.387-.947.78-1.892 1.155-2.843.16-.408.2-.812-.17-1.16-.296-.277-.625-.34-.99-.196-.347.139-.512.44-.645.77-.619 1.53-1.243 3.06-1.872 4.586-.043.107-.042.276-.193.288-.14.01-.187-.142-.252-.24a12.152 12.152 0 0 1-1.862-5.019C.05 13.714.02 13.632 0 13.55V10.81c.088-.146.046-.313.073-.47.506-2.953 1.83-5.449 4.13-7.413A12.164 12.164 0 0 1 9.68.24c.48-.1.968-.16 1.453-.24h2.078ZM24.368 12.206c0 2.947-.947 5.567-2.84 7.816-1.71 2.029-3.888 3.35-6.477 3.98-.124.03-.277.132-.378-.004-.092-.122.008-.263.058-.383 1.277-3.124 2.56-6.246 3.832-9.37 1.144-2.806 2.279-5.616 3.418-8.423.009-.022.017-.047.03-.066.075-.123.085-.331.24-.346.166-.018.214.187.286.305.945 1.559 1.56 3.23 1.763 5.051.053.482.042.958.068 1.44ZM36.245 9.26v11.612c0 .546-.001.548-.553.548h-2.115c-.487-.002-.49-.003-.49-.499V5.631c0-.431.014-.864-.005-1.295-.013-.311.077-.446.416-.438.753.022 1.508.014 2.263.004a.612.612 0 0 1 .534.267c1.878 2.435 3.758 4.869 5.64 7.3 1.04 1.343 2.088 2.678 3.13 4.018.045.057.072.128.107.192l.088-.06V4.415c0-.507.002-.508.516-.51.718 0 1.435 0 2.153.002.486.001.488.002.488.5.002 5.318.002 10.637.002 15.955 0 .248-.007.495 0 .741.005.212-.075.32-.301.318a95.355 95.355 0 0 0-2.153.002c-.216.002-.304-.149-.405-.279-.809-1.038-1.607-2.084-2.416-3.124-1.404-1.806-2.816-3.606-4.22-5.412-.832-1.068-1.658-2.14-2.484-3.212-.044-.057-.073-.125-.11-.19l-.085.056ZM90.168 19.851c-.54.595-1.072 1.03-1.721 1.288-2.061.817-4.059.783-5.89-.58-.8-.598-1.204-1.461-1.32-2.471-.118-1.041.03-2.012.608-2.893.712-1.087 1.807-1.575 3.024-1.805 1.66-.313 3.315-.221 4.94.249.294.085.363.012.363-.278-.001-1.299-.948-2.338-2.282-2.534-1.513-.222-2.944.078-4.336.63-.312.123-.41.038-.5-.24a28.382 28.382 0 0 0-.597-1.706c-.135-.346-.03-.517.295-.647.931-.375 1.882-.68 2.877-.8 1.217-.145 2.435-.162 3.648.061 2.195.404 3.76 2.138 3.899 4.365.177 2.858.03 5.72.077 8.58.004.25-.086.354-.345.351-.804-.01-1.608-.007-2.411 0-.237.002-.338-.091-.331-.328.01-.377.002-.755.002-1.242Zm-5.843-2.514c-.014.804.455 1.439 1.286 1.74.603.219 1.216.249 1.852.157 1.558-.226 2.833-1.226 2.787-3.008-.007-.317-.108-.458-.406-.539-.31-.084-.616-.172-.932-.23-1.098-.194-2.193-.29-3.275.109-.823.303-1.298.933-1.312 1.77ZM130.915 19.942c-.725.707-1.452 1.224-2.326 1.452-1.719.448-3.405.412-4.94-.607-1.075-.716-1.616-1.75-1.643-3.05-.016-.697.022-1.38.324-2.02.592-1.258 1.647-1.939 2.949-2.254 1.776-.427 3.549-.29 5.302.164.28.072.337.024.339-.252.015-1.332-.793-2.29-2.206-2.536-1.478-.258-2.892.045-4.269.572-.483.186-.477.195-.644-.29-.202-.593-.401-1.19-.616-1.778-.075-.21-.02-.309.177-.4 1.829-.84 3.759-1.105 5.742-.952 1.348.104 2.612.483 3.585 1.53.709.761 1.052 1.672 1.239 2.667.073.393.072.784.072 1.178v7.474c0 .577-.001.579-.596.579h-1.482c-1.005 0-1.005 0-1.007-.986v-.49Zm.076-3.515c0-.649-.004-.641-.618-.81-.596-.163-1.201-.24-1.817-.296-.92-.084-1.793.019-2.599.482-1.122.646-1.177 2.28-.1 2.996.959.637 2.005.596 3.05.274 1.409-.436 2.084-1.314 2.084-2.646ZM51.338 14.796c.042-1.759.582-3.321 1.793-4.636 1.387-1.509 3.106-2.217 5.147-2.267 1.794-.043 3.386.467 4.773 1.584.983.79 1.664 1.815 2.064 3.008.617 1.836.506 3.65-.352 5.378-.952 1.92-2.52 3.138-4.61 3.616-2.313.528-4.474.138-6.337-1.374-1.371-1.113-2.19-2.575-2.406-4.351-.039-.319-.077-.635-.072-.958Zm3.164-.04c-.072 1.159.512 2.458 1.418 3.282 1.324 1.203 3.807 1.198 5.097-.04.992-.953 1.372-2.125 1.315-3.474-.047-1.1-.469-2.058-1.245-2.8-.946-.9-2.114-1.278-3.439-1.034-.787.145-1.492.479-2.026 1.068-.763.842-1.17 1.842-1.12 2.998ZM100.153 9.97c.88-1.092 1.854-1.874 3.183-2.03 1.573-.184 3.072.016 4.25 1.214.733.745 1.109 1.68 1.247 2.704.174 1.3.061 2.61.074 3.915.019 1.726-.003 3.454.012 5.181.002.348-.093.482-.459.47a34.206 34.206 0 0 0-2.226.001c-.369.011-.491-.099-.488-.48.015-2.503.033-5.008-.004-7.512-.018-1.307-.752-2.42-2.078-2.64-1.994-.333-3.456.85-3.499 2.808-.05 2.428-.011 4.86-.012 7.29 0 .525-.001.526-.537.527-.73 0-1.46-.011-2.188.005-.31.006-.44-.077-.439-.414.009-4.158.007-8.314.001-12.472 0-.291.076-.425.396-.42.79.018 1.582.017 2.374 0 .315-.005.409.121.398.417-.017.441-.005.885-.005 1.435ZM73.125 17.561l2.001-5.412c.461-1.246.925-2.49 1.373-3.741.085-.234.225-.289.447-.288.853.008 1.706 0 2.56.004.38.003.408.049.26.412-.974 2.393-1.952 4.784-2.925 7.178-.723 1.778-1.447 3.555-2.158 5.338-.124.31-.273.468-.641.45-.667-.034-1.336-.018-2.004-.007-.257.005-.403-.082-.503-.33-1.414-3.488-2.836-6.974-4.257-10.46a99.348 99.348 0 0 0-.926-2.214c-.13-.299-.022-.372.26-.37.904.007 1.806.008 2.71 0 .208-.003.308.082.376.27.725 1.989 1.454 3.975 2.183 5.962.376 1.027.753 2.055 1.132 3.082.011.031.046.055.112.126ZM113.028 14.48c0-1.087-.01-2.172.006-3.258.004-.312-.107-.416-.408-.396-.297.02-.594-.004-.89.005-.228.006-.345-.071-.341-.318.007-.69.007-1.381 0-2.072-.004-.244.109-.326.338-.318.296.008.595-.019.89.006.342.028.416-.123.411-.434-.016-.9.005-1.8-.011-2.7-.006-.317.091-.44.422-.432.778.02 1.557.017 2.337.002.302-.006.414.095.41.404-.015.924.004 1.85-.01 2.775-.005.29.092.389.383.385.928-.015 1.855.004 2.784-.01.306-.005.414.103.405.407a39.834 39.834 0 0 0 0 1.924c.007.294-.107.387-.392.384-.927-.012-1.855.007-2.782-.01-.313-.006-.4.108-.398.408.01 2.011 0 4.022.008 6.033.003 1.019.519 1.51 1.536 1.524a3.68 3.68 0 0 0 1.582-.316c.275-.124.378-.063.372.246-.014.628-.015 1.258.001 1.886.006.249-.094.38-.31.482-.621.294-1.272.429-1.957.493a5.891 5.891 0 0 1-2.183-.213c-1.417-.399-1.997-1.684-2.13-2.824-.079-.676-.073-1.351-.073-2.028V14.48Z"/></svg>