<svg width="48" height="42" viewBox="0 0 48 42" fill="none" xmlns="http://www.w3.org/2000/svg">
<path d="M41.4992 32.747H19.0424C18.6484 32.747 18.3007 32.4898 18.1854 32.1133L8.89274 1.79283H1.71673C1.22161 1.79283 0.820312 1.39144 0.820312 0.896417C0.820312 0.401296 1.22161 0 1.71673 0H9.55559C9.94952 0 10.2972 0.257072 10.4127 0.633667L19.7052 30.9542H41.4992C41.9943 30.9542 42.3956 31.3555 42.3956 31.8506C42.3956 32.3457 41.9943 32.747 41.4992 32.747Z" fill="currentColor"/>
<path d="M41.0966 25.912H17.1215C16.6264 25.912 16.2251 25.5107 16.2251 25.0156C16.2251 24.5204 16.6264 24.1191 17.1215 24.1191H41.0916C41.4464 24.1191 41.7655 23.8522 41.8727 23.4699L45.3466 11.0695C45.422 10.7999 45.3904 10.5421 45.2526 10.3036C45.0967 10.0336 44.8484 9.87875 44.5714 9.87875H12.0331C11.538 9.87875 11.1367 9.47746 11.1367 8.98235C11.1367 8.48734 11.538 8.08594 12.0331 8.08594H44.5714C45.4924 8.08594 46.3274 8.57976 46.805 9.40686C47.1823 10.0597 47.2775 10.822 47.073 11.5528L43.599 23.9538C43.2757 25.1068 42.2468 25.912 41.0966 25.912Z" fill="currentColor"/>
<path d="M24.7942 42.0002C22.8356 42.0002 21.2422 40.4173 21.2422 38.4717C21.2422 36.5262 22.8146 34.9434 24.7474 34.9434H24.7942C26.7397 34.9434 28.3226 36.5262 28.3226 38.4717C28.3226 40.4173 26.7397 42.0002 24.7942 42.0002ZM24.7474 36.7362C23.8033 36.7362 23.035 37.5146 23.035 38.4717C23.035 39.4287 23.8241 40.2073 24.7942 40.2073C25.7512 40.2073 26.5297 39.4287 26.5297 38.4717C26.5297 37.5146 25.7512 36.7362 24.7942 36.7362H24.7474Z" fill="currentColor"/>
<path d="M37.2844 42.0002C35.3259 42.0002 33.7324 40.4173 33.7324 38.4717C33.7324 36.5262 35.3048 34.9434 37.2376 34.9434H37.2844C39.2299 34.9434 40.8128 36.5262 40.8128 38.4717C40.8128 40.4173 39.2299 42.0002 37.2844 42.0002ZM37.2376 36.7362C36.2935 36.7362 35.5252 37.5146 35.5252 38.4717C35.5252 39.4287 36.3143 40.2073 37.2844 40.2073C38.2414 40.2073 39.02 39.4287 39.02 38.4717C39.02 37.5146 38.2414 36.7362 37.2844 36.7362H37.2376Z" fill="currentColor"/>
<path d="M29.1581 25.912C28.663 25.912 28.2617 25.5107 28.2617 25.0156V8.98235C28.2617 8.48734 28.663 8.08594 29.1581 8.08594C29.6533 8.08594 30.0546 8.48734 30.0546 8.98235V25.0156C30.0546 25.5107 29.6533 25.912 29.1581 25.912Z" fill="currentColor"/>
<path d="M23.0822 25.9121C22.6507 25.9121 22.2704 25.5998 22.1986 25.1601L19.5783 9.127C19.4985 8.63836 19.8298 8.17759 20.3184 8.09772C20.8069 8.01824 21.2678 8.34922 21.3476 8.83786L23.9679 24.8711C24.0477 25.3596 23.7164 25.8204 23.2278 25.9002C23.1789 25.9083 23.1302 25.9121 23.0822 25.9121Z" fill="currentColor"/>
<path d="M35.2355 25.9121C35.1875 25.9121 35.1388 25.9083 35.0899 25.9002C34.6012 25.8204 34.2699 25.3596 34.3498 24.8711L36.9701 8.83786C37.0499 8.34922 37.5114 8.01824 37.9993 8.09772C38.4879 8.17759 38.8192 8.63836 38.7394 9.127L36.1191 25.1601C36.0472 25.5998 35.667 25.9121 35.2355 25.9121Z" fill="currentColor"/>
<path d="M44.6165 17.8944H14.4902C13.9951 17.8944 13.5938 17.4931 13.5938 16.998C13.5938 16.5029 13.9951 16.1016 14.4902 16.1016H44.6165C45.1117 16.1016 45.513 16.5029 45.513 16.998C45.513 17.4931 45.1117 17.8944 44.6165 17.8944Z" fill="currentColor"/>
</svg>
