<svg xmlns="http://www.w3.org/2000/svg" width="26" height="26" fill="none"><path fill="#fff" d="M12.889 3.965h9.285a12.94 12.94 0 0 0-2.43-1.983H12.89v1.983Z"/><path fill="#D40026" d="M19.745 1.982A12.818 12.818 0 0 0 12.889 0v1.982h6.856ZM12.889 5.946h10.846a12.932 12.932 0 0 0-1.561-1.981h-9.285v1.981Z"/><path fill="#fff" d="M12.889 7.928h11.887c-.29-.694-.64-1.355-1.041-1.982H12.889v1.982Z"/><path fill="#D40026" d="M12.889 9.91h12.527a12.785 12.785 0 0 0-.64-1.982H12.889V9.91Z"/><path fill="#fff" d="M12.889 11.891h12.834a12.849 12.849 0 0 0-.307-1.982H12.889v1.982Z"/><path fill="#D40026" d="M12.889 13.873h12.834c.025-.327.041-.657.041-.99 0-.334-.016-.664-.041-.991H12.889v1.982Z"/><path fill="#fff" d="M25.722 13.873H.041c.052.677.155 1.338.307 1.982h25.067c.152-.644.256-1.305.307-1.982Z"/><path fill="#D40026" d="M19.744 23.783H6.02a12.817 12.817 0 0 0 6.86 1.982h.003c2.523 0 4.874-.728 6.86-1.982ZM25.417 15.855H.35c.161.683.374 1.346.64 1.982h23.787c.265-.636.478-1.299.64-1.982Z"/><path fill="#fff" d="M24.775 17.837H.988c.29.694.64 1.356 1.041 1.982h21.705c.402-.626.752-1.288 1.041-1.982Z"/><path fill="#D40026" d="M23.735 19.82H2.029c.456.71.98 1.374 1.562 1.981h18.582a12.927 12.927 0 0 0 1.562-1.982Z"/><path fill="#fff" d="M22.174 21.8H3.592a12.94 12.94 0 0 0 2.429 1.983h13.724a12.94 12.94 0 0 0 2.429-1.982Z"/><path fill="#000B8F" d="M7.884 1.006c-.154.065-.306.134-.456.205h.389l.067-.205Z"/><path fill="#000B8F" d="M12.889 13.873V0h-.008C11.183 0 9.563.332 8.08.93l.092.281h.57l-.461.335.176.543-.462-.335-.462.335.177-.543-.392-.284a12.932 12.932 0 0 0-4.902 4.115h.499l.176-.543.177.543h.57l-.461.335.176.543-.462-.335-.461.335.176-.543-.414-.3c-.283.396-.546.81-.783 1.238l.036.11h.57l-.461.336.176.543-.462-.336-.297.216a12.781 12.781 0 0 0-1.022 3.407h.426l-.462.336.177.542-.228-.165c-.04.41-.061.824-.061 1.243 0 .334.017.664.042.991h12.847ZM3.984 9.535h.57l.177-.543.176.543h.57l-.46.335.175.543-.461-.335-.462.335.176-.543-.461-.335Zm1.208-1.896-.461-.336-.462.336.176-.543-.461-.336h.57l.177-.543.176.543h.57l-.46.336.175.543Zm2.626-.879.176-.543.177.543h.57l-.461.336.176.543-.462-.336-.462.336.177-.543-.462-.336h.57Zm.353 5.55h.57l-.461.335.176.543-.462-.336-.462.336.177-.543-.462-.335h.57l.177-.543.177.543Zm-1.994-1.384.177-.543.176.543h.571l-.462.336.177.542-.462-.335-.462.335.176-.542-.461-.336h.57Zm3.902.878-.462-.335-.461.335.176-.542-.462-.336h.571l.176-.543.177.543h.57l-.461.336.176.542Zm-1.623-1.39-.462-.336-.462.335.177-.543-.462-.335h.57l.177-.543.177.543h.57l-.461.335.176.543ZM6.53 8.151h.571l-.462.335.177.543-.462-.336-.462.336.176-.543-.461-.335h.57l.177-.543.176.543Zm-3.616 2.774.176-.543.177.543h.57l-.461.336.176.542-.462-.335-.461.335.176-.542-.462-.336h.571Zm1.64 1.383.177-.542.176.543h.57l-.46.335.175.543-.461-.336-.462.336.176-.543-.461-.335h.57Zm6.88 0h.57l-.461.336.176.543-.461-.336-.462.336.176-.543-.461-.335h.57l.177-.543.176.543Zm.285-1.896-.461-.335-.462.335.176-.543-.461-.335h.57l.177-.543.176.543h.57l-.461.335.176.543ZM9.794 8.152h.57l-.461.335.176.543-.462-.336-.461.336.176-.543-.462-.335h.571l.176-.543.177.543Zm1.925-.513-.461-.336-.462.336.176-.543-.461-.336h.57l.177-.543.176.543h.57l-.461.336.176.543Zm-1.64-1.384-.462-.335-.461.335.176-.543-.462-.335h.571l.176-.543.177.543h.57l-.461.335.176.543Zm-2.261-2.27.176-.542.177.543h.57l-.461.335.176.543-.462-.336-.462.336.177-.543-.462-.335h.57Zm2.261-.504-.462-.336-.461.336.176-.543-.462-.336h.571l.176-.543.177.543h.57l-.461.336.176.543Zm1.355.505h.57l-.461.335.176.543-.461-.336-.462.336.176-.543-.461-.335h.57l.177-.543.176.543Zm-.923-2.775h.57l.177-.543.176.543h.57l-.461.335.176.543-.461-.335-.462.335.176-.543-.461-.335ZM6.177 2.602l.177-.543.176.543h.571l-.462.336.177.543-.462-.336-.462.336.176-.543-.461-.336h.57Zm-1.446.84.176.544h.57l-.46.335.175.543-.461-.336-.462.336.176-.543-.461-.335h.57l.177-.543Zm1.337 2.27-.461-.335h.57l.177-.543.176.543h.571l-.462.335.177.543-.462-.335-.462.335.176-.543ZM3.09 7.61l.177.543h.57l-.461.335.176.543-.462-.336-.461.336.176-.543-.462-.335h.571l.176-.543ZM.72 9.535h.57l.177-.543.177.543h.57l-.461.335.176.543-.462-.335-.462.335.177-.543-.462-.335Zm.747 2.232.177.543h.57l-.461.335.176.543-.462-.336-.462.336.177-.543-.462-.335h.57l.177-.543Z"/><path fill="#fff" d="m5.893 3.48.462-.335.461.336-.176-.543.462-.336H6.53l-.176-.542-.177.542h-.57l.461.336-.176.543ZM9.795 2.602l-.177-.542-.176.542h-.57l.46.336-.175.543.461-.336.462.336-.176-.543.461-.336h-.57ZM2.628 6.255l.462-.335.462.335-.176-.543.461-.335h-.57l-.177-.543-.176.543h-.499l-.024.034.414.301-.177.543ZM6.355 5.92l.461.335-.176-.543.462-.335H6.53l-.176-.543-.177.543h-.57l.461.335-.176.543.462-.335ZM10.365 5.377h-.57l-.177-.543-.176.543h-.57l.46.335-.176.543.462-.335.462.335-.176-.543.461-.335ZM2.344 8.151l.462.336-.177.543.462-.336.462.336-.177-.543.462-.336h-.57l-.177-.543-.176.543h-.571ZM6.355 7.608l-.177.543h-.57l.461.336-.176.543.462-.336.461.336-.176-.543.462-.336H6.53l-.176-.543ZM9.442 8.151h-.57l.46.336-.175.543.461-.336.462.336-.176-.543.462-.336h-.571l-.177-.543-.176.543ZM.112 11.262l.462-.335H.147c-.035.235-.063.473-.086.713l.227.165-.176-.543ZM2.63 11.805l.461-.335.462.335-.177-.543.462-.335h-.57l-.177-.543-.176.543h-.571l.462.335-.177.543ZM5.893 11.805l.462-.335.461.335-.176-.543.462-.335H6.53l-.176-.543-.177.543h-.57l.461.335-.176.543ZM9.795 10.927l-.177-.543-.176.543h-.57l.46.335-.175.543.461-.335.462.335-.176-.543.461-.335h-.57ZM7.532 2.09l.462-.336.462.336-.177-.543.462-.335h-.57L8.078.93l-.195.076-.067.206h-.389c-.037.017-.075.032-.112.05l.392.285-.176.543ZM10.795 2.09l.462-.336.462.335-.177-.543.462-.335h-.57l-.177-.543-.176.543h-.571l.462.335-.177.543ZM3.984 3.986l.462.336-.176.543.462-.336.461.336-.176-.543.462-.336h-.571l-.176-.543-.177.543h-.57ZM7.531 4.865l.462-.336.462.336-.176-.543.461-.336h-.57l-.177-.543-.176.543h-.57l.46.336-.176.543ZM11.08 3.986h-.57l.462.336-.177.543.462-.336.462.336-.177-.543.462-.336h-.57l-.177-.543-.176.543ZM1.929 7.64l-.177-.544.462-.335h-.57l-.037-.11c-.156.283-.301.573-.437.868l.297-.215.462.335ZM4.908 6.76l-.176-.542-.177.543h-.57l.461.335-.176.543.462-.336.461.336-.176-.543.462-.335h-.571ZM7.531 7.639l.462-.336.462.336-.176-.543.461-.335h-.57l-.177-.543-.176.543h-.57l.46.335-.176.543ZM11.433 6.76l-.176-.542-.176.543h-.571l.462.335-.177.543.462-.336.462.336-.177-.543.462-.335h-.57ZM1.006 10.413l.462-.335.462.335-.177-.542.462-.336h-.57l-.177-.543-.177.543h-.57l.461.336-.176.542ZM4.27 10.413l.462-.335.461.335-.176-.542.462-.336h-.571l-.176-.543-.177.543h-.57l.461.336-.176.542ZM8.17 9.535l-.177-.543-.176.543h-.57l.46.336-.176.542.462-.335.462.335-.176-.542.461-.336h-.57ZM12.004 9.535h-.57l-.177-.543-.176.543h-.571l.462.336-.177.542.462-.335.462.335-.177-.542.462-.336ZM.72 12.31l.462.335-.176.543.462-.336.462.336-.177-.543.462-.336h-.57l-.177-.542-.177.542h-.57ZM4.27 13.188l.462-.336.461.336-.176-.543.462-.336h-.571l-.176-.542-.177.542h-.57l.461.336-.176.543ZM7.817 12.31h-.57l.46.335-.176.543.462-.336.462.336-.176-.543.461-.336h-.57l-.177-.542-.176.542ZM11.08 12.31h-.57l.462.335-.177.543.462-.336.462.336-.177-.543.462-.336h-.57l-.177-.542-.176.542Z"/></svg>